# 3ds Max Wavefront OBJ Exporter v0.97b - (c)2007 guruware
# File Created: 10.04.2018 16:44:29

#
# object Line001
#

v  0.9739 0.1239 0.0300
v  0.9790 -0.1188 0.0300
v  0.9928 0.0137 0.0300
v  -0.2847 0.6149 0.0300
v  -0.2846 0.3627 0.0300
v  -0.0144 0.3632 0.0300
v  -0.0125 0.6439 0.0300
v  -0.5344 0.4545 0.0300
v  -0.5353 0.3619 0.0300
v  -0.6842 0.4562 0.0300
v  -0.6844 0.3615 0.0300
v  -0.7910 0.3650 0.0300
v  -0.7961 0.2772 0.0300
v  -0.6842 0.2769 0.0300
v  -0.9063 0.2272 0.0300
v  -0.9012 -0.2273 0.0300
v  -0.7961 -0.2721 0.0300
v  -0.9821 0.1153 0.0300
v  -0.9683 -0.1343 0.0300
v  -1.0010 -0.0190 0.0300
v  0.2535 0.6189 0.0300
v  0.2548 0.3637 0.0300
v  0.5540 0.3647 0.0300
v  0.5554 0.4562 0.0300
v  0.6791 0.3650 0.0300
v  0.6792 0.4545 0.0300
v  0.7862 0.3633 0.0300
v  0.6787 0.2740 0.0300
v  0.7879 0.2737 0.0300
v  0.7828 -0.2755 0.0300
v  0.8975 -0.2243 0.0300
v  0.9016 0.2272 0.0300
v  -0.6828 -0.2723 0.0300
v  -0.5411 -0.2726 0.0300
v  -0.5361 0.2766 0.0300
v  -0.2842 -0.2733 0.0300
v  -0.2845 0.2760 0.0300
v  -0.0187 -0.2738 0.0300
v  -0.0150 0.2755 0.0300
v  0.2578 -0.2742 0.0300
v  0.2552 0.2750 0.0300
v  0.5440 -0.2750 0.0300
v  0.5526 0.2742 0.0300
v  0.6764 -0.2753 0.0300
v  -0.6825 -0.3668 0.0300
v  -0.6842 -0.4563 0.0300
v  -0.5427 -0.4546 0.0300
v  -0.5419 -0.3670 0.0300
v  -0.2840 -0.6016 0.0300
v  -0.2842 -0.3674 0.0300
v  -0.0212 -0.6501 0.0300
v  -0.0193 -0.3676 0.0300
v  0.2595 -0.6212 0.0300
v  0.2583 -0.3679 0.0300
v  0.5412 -0.4546 0.0300
v  0.5426 -0.3683 0.0300
v  0.6795 -0.4615 0.0300
v  0.6760 -0.3685 0.0300
v  -0.7944 -0.3651 0.0300
v  0.7862 -0.3685 0.0300
v  0.9928 0.0137 0.0000
v  0.9790 -0.1188 -0.0000
v  0.9739 0.1239 0.0000
v  -0.0144 0.3632 0.0000
v  -0.2846 0.3627 0.0000
v  -0.2847 0.6149 0.0000
v  -0.0125 0.6439 0.0000
v  -0.5353 0.3619 0.0000
v  -0.5344 0.4545 0.0000
v  -0.6844 0.3615 0.0000
v  -0.6842 0.4562 0.0000
v  -0.6842 0.2769 0.0000
v  -0.7961 0.2772 0.0000
v  -0.7910 0.3650 0.0000
v  -0.7961 -0.2721 -0.0000
v  -0.9012 -0.2273 -0.0000
v  -0.9063 0.2272 0.0000
v  -0.9683 -0.1343 -0.0000
v  -0.9821 0.1153 0.0000
v  -1.0010 -0.0190 -0.0000
v  0.2535 0.6189 0.0000
v  0.2548 0.3637 0.0000
v  0.5554 0.4562 0.0000
v  0.5540 0.3647 0.0000
v  0.6792 0.4545 0.0000
v  0.6791 0.3650 0.0000
v  0.6787 0.2740 0.0000
v  0.7862 0.3633 0.0000
v  0.7879 0.2737 0.0000
v  0.8975 -0.2243 -0.0000
v  0.7828 -0.2755 -0.0000
v  0.9016 0.2272 0.0000
v  -0.6828 -0.2723 -0.0000
v  -0.5361 0.2766 0.0000
v  -0.5411 -0.2726 -0.0000
v  -0.2845 0.2760 0.0000
v  -0.2842 -0.2733 -0.0000
v  -0.0187 -0.2738 -0.0000
v  -0.0150 0.2755 0.0000
v  0.2552 0.2750 0.0000
v  0.2578 -0.2742 -0.0000
v  0.5526 0.2742 0.0000
v  0.5440 -0.2750 -0.0000
v  0.6764 -0.2753 -0.0000
v  -0.5427 -0.4546 -0.0000
v  -0.6842 -0.4563 -0.0000
v  -0.6825 -0.3668 -0.0000
v  -0.5419 -0.3670 -0.0000
v  -0.2842 -0.3674 -0.0000
v  -0.2840 -0.6016 -0.0000
v  -0.0193 -0.3676 -0.0000
v  -0.0212 -0.6501 -0.0000
v  0.2595 -0.6212 -0.0000
v  0.2583 -0.3679 -0.0000
v  0.5426 -0.3683 -0.0000
v  0.5412 -0.4546 -0.0000
v  0.6760 -0.3685 -0.0000
v  0.6795 -0.4615 -0.0000
v  -0.7944 -0.3651 -0.0000
v  0.7862 -0.3685 -0.0000
# 120 vertices

vn -0.0000 -0.0000 1.0000
vn 0.0000 -0.0000 1.0000
vn 0.0000 0.0000 -1.0000
vn 0.9994 0.0333 0.0000
vn 0.9283 -0.3718 -0.0000
vn 0.9247 0.3806 0.0000
vn -0.3321 0.9432 0.0000
vn -0.0063 1.0000 0.0000
vn -0.2760 0.9612 0.0000
vn -1.0000 0.0021 0.0000
vn 0.0115 0.9999 0.0000
vn -0.9983 0.0587 0.0000
vn 0.0323 0.9995 0.0000
vn -0.3921 -0.9199 -0.0000
vn -0.6242 -0.7813 -0.0000
vn -0.6447 0.7645 0.0000
vn -0.4127 0.9109 0.0000
vn -0.9001 -0.4358 -0.0000
vn -0.9332 0.3594 0.0000
vn -0.9977 -0.0681 -0.0000
vn 0.2898 0.9571 0.0000
vn 0.2514 0.9679 0.0000
vn 1.0000 -0.0017 -0.0000
vn 0.0139 0.9999 0.0000
vn 0.0161 0.9999 0.0000
vn 0.9998 0.0192 0.0000
vn 0.6180 -0.7861 -0.0000
vn 0.4079 -0.9130 -0.0000
vn 0.3786 0.9255 0.0000
vn 0.6243 0.7812 0.0000
vn -0.9998 0.0192 0.0000
vn -0.2496 -0.9683 -0.0000
vn 0.0122 -0.9999 -0.0000
vn -0.3425 -0.9395 -0.0000
vn -0.0400 -0.9992 -0.0000
vn 0.3129 -0.9498 -0.0000
vn 0.2398 -0.9708 -0.0000
vn -0.0498 -0.9988 -0.0000
vn 0.9993 0.0370 0.0000
vn -0.9998 -0.0185 -0.0000
vn -0.0154 -0.9999 -0.0000
vn 0.0000 -1.0000 -0.0000
# 42 vertex normals

vt 0.9239 0.8401 0.0000
vt 0.9246 0.8063 0.0000
vt 0.9265 0.8247 0.0000
vt 0.7490 0.9083 0.0000
vt 0.7490 0.8732 0.0000
vt 0.7866 0.8733 0.0000
vt 0.7868 0.9123 0.0000
vt 0.7143 0.8860 0.0000
vt 0.7142 0.8731 0.0000
vt 0.6935 0.8862 0.0000
vt 0.6934 0.8731 0.0000
vt 0.6786 0.8736 0.0000
vt 0.6779 0.8613 0.0000
vt 0.6935 0.8613 0.0000
vt 0.6626 0.8544 0.0000
vt 0.6633 0.7912 0.0000
vt 0.6779 0.7850 0.0000
vt 0.6521 0.8389 0.0000
vt 0.6540 0.8042 0.0000
vt 0.6494 0.8202 0.0000
vt 0.8238 0.9088 0.0000
vt 0.8240 0.8734 0.0000
vt 0.8655 0.8735 0.0000
vt 0.8657 0.8862 0.0000
vt 0.8829 0.8736 0.0000
vt 0.8829 0.8860 0.0000
vt 0.8978 0.8733 0.0000
vt 0.8829 0.8609 0.0000
vt 0.8981 0.8609 0.0000
vt 0.8973 0.7845 0.0000
vt 0.9133 0.7917 0.0000
vt 0.9138 0.8544 0.0000
vt 0.6937 0.7850 0.0000
vt 0.7134 0.7849 0.0000
vt 0.7141 0.8613 0.0000
vt 0.7491 0.7848 0.0000
vt 0.7490 0.8612 0.0000
vt 0.7860 0.7848 0.0000
vt 0.7865 0.8611 0.0000
vt 0.8244 0.7847 0.0000
vt 0.8240 0.8611 0.0000
vt 0.8642 0.7846 0.0000
vt 0.8653 0.8609 0.0000
vt 0.8826 0.7846 0.0000
vt 0.6937 0.7719 0.0000
vt 0.6935 0.7594 0.0000
vt 0.7131 0.7597 0.0000
vt 0.7132 0.7718 0.0000
vt 0.7491 0.7392 0.0000
vt 0.7491 0.7718 0.0000
vt 0.7856 0.7325 0.0000
vt 0.7859 0.7717 0.0000
vt 0.8246 0.7365 0.0000
vt 0.8244 0.7717 0.0000
vt 0.8638 0.7597 0.0000
vt 0.8640 0.7716 0.0000
vt 0.8830 0.7587 0.0000
vt 0.8825 0.7716 0.0000
vt 0.6782 0.7721 0.0000
vt 0.8978 0.7716 0.0000
vt 0.6494 0.2040 0.0000
vt 0.6514 0.1856 0.0000
vt 0.6521 0.2194 0.0000
vt 0.7894 0.2526 0.0000
vt 0.8270 0.2525 0.0000
vt 0.8270 0.2876 0.0000
vt 0.7891 0.2916 0.0000
vt 0.8618 0.2524 0.0000
vt 0.8617 0.2653 0.0000
vt 0.8825 0.2524 0.0000
vt 0.8825 0.2655 0.0000
vt 0.8825 0.2406 0.0000
vt 0.8981 0.2407 0.0000
vt 0.8973 0.2529 0.0000
vt 0.8981 0.1643 0.0000
vt 0.9126 0.1705 0.0000
vt 0.9134 0.2337 0.0000
vt 0.9220 0.1835 0.0000
vt 0.9239 0.2182 0.0000
vt 0.9265 0.1995 0.0000
vt 0.7522 0.2881 0.0000
vt 0.7520 0.2527 0.0000
vt 0.7102 0.2655 0.0000
vt 0.7104 0.2528 0.0000
vt 0.6930 0.2653 0.0000
vt 0.6930 0.2529 0.0000
vt 0.6931 0.2402 0.0000
vt 0.6782 0.2526 0.0000
vt 0.6779 0.2402 0.0000
vt 0.6627 0.1710 0.0000
vt 0.6786 0.1638 0.0000
vt 0.6621 0.2337 0.0000
vt 0.8823 0.1643 0.0000
vt 0.8619 0.2406 0.0000
vt 0.8626 0.1642 0.0000
vt 0.8270 0.2405 0.0000
vt 0.8269 0.1641 0.0000
vt 0.7900 0.1641 0.0000
vt 0.7895 0.2404 0.0000
vt 0.7519 0.2404 0.0000
vt 0.7516 0.1640 0.0000
vt 0.7106 0.2402 0.0000
vt 0.7118 0.1639 0.0000
vt 0.6934 0.1639 0.0000
vt 0.8628 0.1390 0.0000
vt 0.8825 0.1387 0.0000
vt 0.8823 0.1512 0.0000
vt 0.8627 0.1511 0.0000
vt 0.8269 0.1511 0.0000
vt 0.8269 0.1185 0.0000
vt 0.7901 0.1510 0.0000
vt 0.7904 0.1118 0.0000
vt 0.7513 0.1158 0.0000
vt 0.7515 0.1510 0.0000
vt 0.7120 0.1509 0.0000
vt 0.7122 0.1390 0.0000
vt 0.6935 0.1509 0.0000
vt 0.6930 0.1380 0.0000
vt 0.8978 0.1514 0.0000
vt 0.6782 0.1509 0.0000
vt 0.0200 0.0550 0.1736
vt 0.0375 0.0550 0.1665
vt 0.0375 0.0589 0.1665
vt 0.0200 0.0589 0.1736
vt 0.8261 0.0550 0.1628
vt 0.8408 0.0550 0.1736
vt 0.8408 0.0589 0.1736
vt 0.8261 0.0589 0.1628
vt 0.5821 0.0550 -0.1423
vt 0.6361 0.0550 -0.1736
vt 0.6361 0.0589 -0.1736
vt 0.5821 0.0589 -0.1423
vt 0.5256 0.0589 -0.1206
vt 0.5256 0.0550 -0.1206
vt 0.4969 0.0550 -0.0498
vt 0.5102 0.0550 -0.0014
vt 0.5102 0.0589 -0.0014
vt 0.4969 0.0589 -0.0498
vt 0.4770 0.0550 0.0179
vt 0.4898 0.0550 0.0463
vt 0.4898 0.0589 0.0463
vt 0.4770 0.0589 0.0179
vt 0.3898 0.0550 0.0143
vt 0.4006 0.0550 0.1018
vt 0.4006 0.0589 0.1018
vt 0.3898 0.0589 0.0143
vt 0.4653 0.0550 0.1082
vt 0.4653 0.0589 0.1082
vt 0.4149 0.0550 0.1498
vt 0.4149 0.0589 0.1498
vt 0.4483 0.0550 0.1618
vt 0.4483 0.0589 0.1618
vt 0.4305 0.0550 0.1736
vt 0.4305 0.0589 0.1736
vt 0.6891 0.0550 -0.1476
vt 0.6891 0.0589 -0.1476
vt 0.7532 0.0550 -0.0974
vt 0.7532 0.0589 -0.0974
vt 0.7659 0.0550 0.0003
vt 0.7784 0.0550 -0.0457
vt 0.7784 0.0589 -0.0457
vt 0.7659 0.0589 0.0003
vt 0.7863 0.0550 0.0486
vt 0.7863 0.0589 0.0486
vt 0.7991 0.0550 0.0168
vt 0.7991 0.0589 0.0168
vt 0.0536 0.0550 0.1054
vt 0.0657 0.0550 0.0106
vt 0.0657 0.0589 0.0106
vt 0.0536 0.0589 0.1054
vt 0.8105 0.0550 0.1115
vt 0.8105 0.0589 0.1115
vt 0.3558 0.0550 -0.0047
vt 0.3683 0.0550 -0.0519
vt 0.3683 0.0589 -0.0519
vt 0.3558 0.0589 -0.0047
vt 0.3415 0.0550 -0.1183
vt 0.3415 0.0589 -0.1183
vt 0.2846 0.0589 -0.1600
vt 0.2846 0.0550 -0.1600
vt 0.2309 0.0550 -0.1734
vt 0.2309 0.0589 -0.1734
vt 0.1747 0.0550 -0.1489
vt 0.1747 0.0589 -0.1489
vt 0.1125 0.0589 -0.1132
vt 0.1125 0.0550 -0.1132
vt 0.0994 0.0550 0.0010
vt 0.0994 0.0589 0.0010
vt 0.0866 0.0550 -0.0496
vt 0.0866 0.0589 -0.0496
vt 0.3765 0.0550 0.0468
vt 0.3765 0.0589 0.0468
vt 0.0788 0.0550 0.0483
vt 0.0788 0.0589 0.0483
# 194 texture coords

g Line001
s 1
f 1/1/1 2/2/2 3/3/2 
f 4/4/2 5/5/2 6/6/2 7/7/2 
f 5/5/2 4/4/2 8/8/2 9/9/2 
f 10/10/2 11/11/2 9/9/2 8/8/2 
f 12/12/2 13/13/2 14/14/2 11/11/2 
f 15/15/2 16/16/1 17/17/2 13/13/2 
f 18/18/2 19/19/1 16/16/1 15/15/2 
f 18/18/2 20/20/2 19/19/1 
f 21/21/2 7/7/2 6/6/2 22/22/2 
f 21/21/2 22/22/2 23/23/2 24/24/2 
f 25/25/2 26/26/2 24/24/2 23/23/2 
f 27/27/2 25/25/2 28/28/2 29/29/2 
f 29/29/2 30/30/2 31/31/2 32/32/2 
f 1/1/1 32/32/2 31/31/2 2/2/2 
f 17/17/2 33/33/2 14/14/2 13/13/2 
f 33/33/2 34/34/2 35/35/2 14/14/2 
f 34/34/2 36/36/2 37/37/2 35/35/2 
f 37/37/2 36/36/2 38/38/2 39/39/2 
f 38/38/2 40/40/2 41/41/2 39/39/2 
f 40/40/2 42/42/2 43/43/2 41/41/2 
f 42/42/2 44/44/2 28/28/2 43/43/2 
f 44/44/2 30/30/2 29/29/2 28/28/2 
f 14/14/2 35/35/2 9/9/2 11/11/2 
f 9/9/2 35/35/2 37/37/2 5/5/2 
f 5/5/2 37/37/2 39/39/2 6/6/2 
f 6/6/2 39/39/2 41/41/2 22/22/2 
f 41/41/2 43/43/2 23/23/2 22/22/2 
f 25/25/2 23/23/2 43/43/2 28/28/2 
f 45/45/2 46/46/2 47/47/2 48/48/2 
f 47/47/2 49/49/2 50/50/2 48/48/2 
f 49/49/2 51/51/2 52/52/2 50/50/2 
f 52/52/2 51/51/2 53/53/2 54/54/2 
f 54/54/2 53/53/2 55/55/2 56/56/2 
f 55/55/2 57/57/2 58/58/2 56/56/2 
f 17/17/2 59/59/2 45/45/2 33/33/2 
f 45/45/2 48/48/2 34/34/2 33/33/2 
f 34/34/2 48/48/2 50/50/2 36/36/2 
f 36/36/2 50/50/2 52/52/2 38/38/2 
f 52/52/2 54/54/2 40/40/2 38/38/2 
f 54/54/2 56/56/2 42/42/2 40/40/2 
f 42/42/2 56/56/2 58/58/2 44/44/2 
f 58/58/2 60/60/2 30/30/2 44/44/2 
f 61/61/3 62/62/3 63/63/3 
f 64/64/3 65/65/3 66/66/3 67/67/3 
f 66/66/3 65/65/3 68/68/3 69/69/3 
f 68/68/3 70/70/3 71/71/3 69/69/3 
f 72/72/3 73/73/3 74/74/3 70/70/3 
f 75/75/3 76/76/3 77/77/3 73/73/3 
f 76/76/3 78/78/3 79/79/3 77/77/3 
f 78/78/3 80/80/3 79/79/3 
f 64/64/3 67/67/3 81/81/3 82/82/3 
f 82/82/3 81/81/3 83/83/3 84/84/3 
f 83/83/3 85/85/3 86/86/3 84/84/3 
f 87/87/3 86/86/3 88/88/3 89/89/3 
f 90/90/3 91/91/3 89/89/3 92/92/3 
f 90/90/3 92/92/3 63/63/3 62/62/3 
f 72/72/3 93/93/3 75/75/3 73/73/3 
f 94/94/3 95/95/3 93/93/3 72/72/3 
f 96/96/3 97/97/3 95/95/3 94/94/3 
f 98/98/3 97/97/3 96/96/3 99/99/3 
f 100/100/3 101/101/3 98/98/3 99/99/3 
f 102/102/3 103/103/3 101/101/3 100/100/3 
f 87/87/3 104/104/3 103/103/3 102/102/3 
f 89/89/3 91/91/3 104/104/3 87/87/3 
f 68/68/3 94/94/3 72/72/3 70/70/3 
f 94/94/3 68/68/3 65/65/3 96/96/3 
f 99/99/3 96/96/3 65/65/3 64/64/3 
f 100/100/3 99/99/3 64/64/3 82/82/3 
f 84/84/3 102/102/3 100/100/3 82/82/3 
f 102/102/3 84/84/3 86/86/3 87/87/3 
f 105/105/3 106/106/3 107/107/3 108/108/3 
f 109/109/3 110/110/3 105/105/3 108/108/3 
f 111/111/3 112/112/3 110/110/3 109/109/3 
f 113/113/3 112/112/3 111/111/3 114/114/3 
f 113/113/3 114/114/3 115/115/3 116/116/3 
f 117/117/3 118/118/3 116/116/3 115/115/3 
f 107/107/3 119/119/3 75/75/3 93/93/3 
f 95/95/3 108/108/3 107/107/3 93/93/3 
f 108/108/3 95/95/3 97/97/3 109/109/3 
f 111/111/3 109/109/3 97/97/3 98/98/3 
f 101/101/3 114/114/3 111/111/3 98/98/3 
f 103/103/3 115/115/3 114/114/3 101/101/3 
f 117/117/3 115/115/3 103/103/3 104/104/3 
f 91/91/3 120/120/3 117/117/3 104/104/3 
s 2
f 3/121/4 2/122/5 62/123/5 61/124/4 
f 1/125/6 3/126/4 61/127/4 63/128/6 
f 4/129/7 7/130/8 67/131/8 66/132/7 
f 4/129/7 66/132/7 69/133/9 8/134/9 
s 4
f 11/135/10 10/136/10 71/137/10 70/138/10 
s 2
f 10/136/11 8/134/9 69/133/9 71/137/11 
f 13/139/12 12/140/12 74/141/12 73/142/12 
s 8
f 12/140/13 11/135/13 70/138/13 74/141/13 
s 4
f 17/143/14 16/144/15 76/145/15 75/146/14 
f 15/147/16 13/139/17 73/142/17 77/148/16 
f 16/144/15 19/149/18 78/150/18 76/145/15 
f 18/151/19 15/147/16 77/148/16 79/152/19 
f 20/153/20 18/151/19 79/152/19 80/154/20 
f 19/149/18 20/153/20 80/154/20 78/150/18 
s 2
f 7/130/8 21/155/21 81/156/21 67/131/8 
f 21/155/21 24/157/22 83/158/22 81/156/21 
s 4
f 26/159/23 25/160/23 86/161/23 85/162/23 
s 2
f 24/157/22 26/159/24 85/162/24 83/158/22 
f 25/160/25 27/163/25 88/164/25 86/161/25 
s 4
f 27/163/26 29/165/26 89/166/26 88/164/26 
s 2
f 31/167/27 30/168/28 91/169/28 90/170/27 
f 29/165/29 32/171/30 92/172/30 89/166/29 
f 32/171/30 1/125/6 63/128/6 92/172/30 
f 2/122/5 31/167/27 90/170/27 62/123/5 
f 46/173/31 45/174/31 107/175/31 106/176/31 
s 4
f 47/177/32 46/173/33 106/176/33 105/178/32 
f 47/177/32 105/178/32 110/179/34 49/180/34 
f 51/181/35 49/180/34 110/179/34 112/182/35 
f 53/183/36 51/181/35 112/182/35 113/184/36 
f 53/183/36 113/184/36 116/185/37 55/186/37 
f 57/187/38 55/186/37 116/185/37 118/188/38 
s 2
f 58/189/39 57/187/39 118/188/39 117/190/39 
f 59/191/40 17/143/40 75/146/40 119/192/40 
s 4
f 45/174/41 59/191/41 119/192/41 107/175/41 
f 60/193/42 58/189/42 117/190/42 120/194/42 
s 8
f 30/168/39 60/193/39 120/194/39 91/169/39 
# 116 polygons - 4 triangles

