# 3ds Max Wavefront OBJ Exporter v0.97b - (c)2007 guruware
# File Created: 10.04.2018 16:43:17

#
# object Box112
#

v  -1.0000 -0.6500 -0.0000
v  -1.0000 0.6500 0.0000
v  1.0000 0.6500 0.0000
v  1.0000 -0.6500 -0.0000
v  -1.0000 -0.6500 0.0500
v  1.0000 -0.6500 0.0500
v  1.0000 0.6500 0.0500
v  -1.0000 0.6500 0.0500
# 8 vertices

vn 0.0000 0.0000 -1.0000
vn 0.0000 -0.0000 1.0000
vn 0.0000 -1.0000 -0.0000
vn 1.0000 0.0000 -0.0000
vn 0.0000 1.0000 0.0000
vn -1.0000 0.0000 -0.0000
# 6 vertex normals

vt 0.2979 0.7631 0.0000
vt 0.2979 0.9437 0.0000
vt 0.0200 0.9437 0.0000
vt 0.0200 0.7631 0.0000
vt 0.3391 0.7981 0.0000
vt 0.6170 0.7981 0.0000
vt 0.6170 0.9787 0.0000
vt 0.3391 0.9787 0.0000
vt 0.9274 0.9449 0.0000
vt 0.6494 0.9449 0.0000
vt 0.6494 0.9379 0.0000
vt 0.9274 0.9379 0.0000
vt 0.9536 0.4746 0.0000
vt 0.9536 0.6553 0.0000
vt 0.9467 0.6553 0.0000
vt 0.9467 0.4746 0.0000
vt 0.9274 0.9798 0.0000
vt 0.6494 0.9798 0.0000
vt 0.6494 0.9729 0.0000
vt 0.9274 0.9729 0.0000
vt 0.9161 0.7033 0.0000
vt 0.9161 0.5227 0.0000
vt 0.9230 0.5227 0.0000
vt 0.9230 0.7033 0.0000
# 24 texture coords

g Box112
s 2
f 1/1/1 2/2/1 3/3/1 4/4/1 
s 4
f 5/5/2 6/6/2 7/7/2 8/8/2 
s 8
f 1/9/3 4/10/3 6/11/3 5/12/3 
s 16
f 4/13/4 3/14/4 7/15/4 6/16/4 
s 32
f 3/17/5 2/18/5 8/19/5 7/20/5 
s 64
f 2/21/6 1/22/6 5/23/6 8/24/6 
# 6 polygons

