# 3ds Max Wavefront OBJ Exporter v0.97b - (c)2007 guruware
# File Created: 10.04.2018 16:44:50

#
# object Line002
#

v  0.9739 0.0603 0.0300
v  0.9790 -0.1188 0.0300
v  0.9928 0.0137 0.0300
v  -0.2180 0.4774 0.0300
v  -0.2214 0.2253 0.0300
v  -0.0144 0.2258 0.0300
v  -0.0125 0.5065 0.0300
v  -0.3721 0.3775 0.0300
v  -0.3735 0.2249 0.0300
v  -0.5344 0.3171 0.0300
v  -0.5353 0.2245 0.0300
v  -0.6842 0.3188 0.0300
v  -0.6844 0.2241 0.0300
v  -0.7910 0.2275 0.0300
v  -0.7961 0.1397 0.0300
v  -0.6842 0.1395 0.0300
v  -0.9063 0.0999 0.0300
v  -0.9012 -0.1751 0.0300
v  -0.7961 -0.2016 0.0300
v  -0.9821 0.0517 0.0300
v  -0.9683 -0.1343 0.0300
v  -1.0010 -0.0259 0.0300
v  0.1880 0.4815 0.0300
v  0.1861 0.2263 0.0300
v  0.3952 0.3626 0.0300
v  0.3947 0.2268 0.0300
v  0.5554 0.3188 0.0300
v  0.5540 0.2272 0.0300
v  0.6791 0.2275 0.0300
v  0.6792 0.3171 0.0300
v  0.7862 0.2258 0.0300
v  0.6787 0.1365 0.0300
v  0.7879 0.1363 0.0300
v  0.7828 -0.2051 0.0300
v  0.8975 -0.1720 0.0300
v  0.9016 0.0999 0.0300
v  -0.6828 -0.2019 0.0300
v  -0.5411 -0.2022 0.0300
v  -0.5361 0.1392 0.0300
v  -0.3794 -0.2026 0.0300
v  -0.3743 0.1388 0.0300
v  -0.2299 -0.2029 0.0300
v  -0.2225 0.1385 0.0300
v  -0.0187 -0.2033 0.0300
v  -0.0150 0.1380 0.0300
v  0.1813 -0.2038 0.0300
v  0.1855 0.1376 0.0300
v  0.3924 -0.2042 0.0300
v  0.3944 0.1371 0.0300
v  0.5440 -0.2046 0.0300
v  0.5526 0.1368 0.0300
v  0.6764 -0.2049 0.0300
v  0.9928 0.0137 0.0000
v  0.9790 -0.1188 -0.0000
v  0.9739 0.0603 0.0000
v  -0.0144 0.2258 0.0000
v  -0.2214 0.2253 0.0000
v  -0.2180 0.4774 0.0000
v  -0.0125 0.5065 0.0000
v  -0.3721 0.3775 0.0000
v  -0.3735 0.2249 0.0000
v  -0.5353 0.2245 0.0000
v  -0.5344 0.3171 0.0000
v  -0.6844 0.2241 0.0000
v  -0.6842 0.3188 0.0000
v  -0.6842 0.1395 0.0000
v  -0.7961 0.1397 0.0000
v  -0.7910 0.2275 0.0000
v  -0.7961 -0.2016 -0.0000
v  -0.9012 -0.1751 -0.0000
v  -0.9063 0.0999 0.0000
v  -0.9683 -0.1343 -0.0000
v  -0.9821 0.0517 0.0000
v  -1.0010 -0.0259 -0.0000
v  0.1880 0.4815 0.0000
v  0.1861 0.2263 0.0000
v  0.3952 0.3626 0.0000
v  0.3947 0.2268 0.0000
v  0.5554 0.3188 0.0000
v  0.5540 0.2272 0.0000
v  0.6792 0.3171 0.0000
v  0.6791 0.2275 0.0000
v  0.6787 0.1365 0.0000
v  0.7862 0.2258 0.0000
v  0.7879 0.1363 0.0000
v  0.8975 -0.1720 -0.0000
v  0.7828 -0.2051 -0.0000
v  0.9016 0.0999 0.0000
v  -0.6828 -0.2019 -0.0000
v  -0.5361 0.1392 0.0000
v  -0.5411 -0.2022 -0.0000
v  -0.3743 0.1388 0.0000
v  -0.3794 -0.2026 -0.0000
v  -0.2225 0.1385 0.0000
v  -0.2299 -0.2029 -0.0000
v  -0.0187 -0.2033 -0.0000
v  -0.0150 0.1380 0.0000
v  0.1855 0.1376 0.0000
v  0.1813 -0.2038 -0.0000
v  0.3944 0.1371 0.0000
v  0.3924 -0.2042 -0.0000
v  0.5526 0.1368 0.0000
v  0.5440 -0.2046 -0.0000
v  0.6764 -0.2049 -0.0000
# 104 vertices

vn -0.0000 -0.0000 1.0000
vn 0.0000 -0.0000 1.0000
vn 0.0000 0.0000 -1.0000
vn 0.9900 0.1409 0.0000
vn 0.8534 -0.5213 -0.0000
vn 0.7464 0.6655 0.0000
vn -0.3503 0.9366 0.0000
vn -0.0083 1.0000 0.0000
vn -0.4491 0.8935 0.0000
vn -0.1716 0.9852 0.0000
vn -1.0000 0.0021 0.0000
vn 0.0115 0.9999 0.0000
vn -0.9983 0.0587 0.0000
vn 0.0323 0.9995 0.0000
vn -0.2455 -0.9694 -0.0000
vn -0.3862 -0.9224 -0.0000
vn -0.4410 0.8975 0.0000
vn -0.3399 0.9405 0.0000
vn -0.7903 -0.6127 -0.0000
vn -0.8128 0.5825 0.0000
vn -0.9996 -0.0269 -0.0000
vn 0.3170 0.9484 0.0000
vn 0.3838 0.9234 0.0000
vn 0.1399 0.9902 0.0000
vn 1.0000 -0.0017 -0.0000
vn 0.0139 0.9999 0.0000
vn 0.0161 0.9999 0.0000
vn 0.9998 0.0192 0.0000
vn 0.4161 -0.9093 -0.0000
vn 0.2770 -0.9609 -0.0000
vn 0.3049 0.9524 0.0000
vn 0.3943 0.9190 0.0000
vn -0.0022 -1.0000 -0.0000
# 33 vertex normals

vt 0.2945 0.4109 0.0000
vt 0.2952 0.3860 0.0000
vt 0.2971 0.4045 0.0000
vt 0.1288 0.4689 0.0000
vt 0.1284 0.4339 0.0000
vt 0.1571 0.4339 0.0000
vt 0.1574 0.4729 0.0000
vt 0.1074 0.4550 0.0000
vt 0.1072 0.4338 0.0000
vt 0.0848 0.4466 0.0000
vt 0.0847 0.4338 0.0000
vt 0.0640 0.4469 0.0000
vt 0.0640 0.4337 0.0000
vt 0.0492 0.4342 0.0000
vt 0.0485 0.4220 0.0000
vt 0.0640 0.4219 0.0000
vt 0.0332 0.4164 0.0000
vt 0.0339 0.3782 0.0000
vt 0.0485 0.3745 0.0000
vt 0.0226 0.4097 0.0000
vt 0.0245 0.3839 0.0000
vt 0.0200 0.3990 0.0000
vt 0.1852 0.4695 0.0000
vt 0.1850 0.4340 0.0000
vt 0.2140 0.4529 0.0000
vt 0.2140 0.4341 0.0000
vt 0.2363 0.4469 0.0000
vt 0.2361 0.4341 0.0000
vt 0.2535 0.4342 0.0000
vt 0.2535 0.4466 0.0000
vt 0.2684 0.4339 0.0000
vt 0.2534 0.4215 0.0000
vt 0.2686 0.4215 0.0000
vt 0.2679 0.3741 0.0000
vt 0.2838 0.3787 0.0000
vt 0.2844 0.4164 0.0000
vt 0.0642 0.3745 0.0000
vt 0.0839 0.3745 0.0000
vt 0.0846 0.4219 0.0000
vt 0.1064 0.3744 0.0000
vt 0.1071 0.4219 0.0000
vt 0.1272 0.3744 0.0000
vt 0.1282 0.4218 0.0000
vt 0.1565 0.3743 0.0000
vt 0.1570 0.4217 0.0000
vt 0.1843 0.3742 0.0000
vt 0.1849 0.4217 0.0000
vt 0.2136 0.3742 0.0000
vt 0.2139 0.4216 0.0000
vt 0.2347 0.3741 0.0000
vt 0.2359 0.4216 0.0000
vt 0.2531 0.3741 0.0000
vt 0.3260 0.3739 0.0000
vt 0.3279 0.3554 0.0000
vt 0.3286 0.3803 0.0000
vt 0.4659 0.4033 0.0000
vt 0.4947 0.4033 0.0000
vt 0.4942 0.4383 0.0000
vt 0.4657 0.4423 0.0000
vt 0.5157 0.4244 0.0000
vt 0.5159 0.4032 0.0000
vt 0.5383 0.4032 0.0000
vt 0.5382 0.4160 0.0000
vt 0.5591 0.4031 0.0000
vt 0.5590 0.4163 0.0000
vt 0.5590 0.3913 0.0000
vt 0.5746 0.3914 0.0000
vt 0.5739 0.4036 0.0000
vt 0.5746 0.3439 0.0000
vt 0.5892 0.3476 0.0000
vt 0.5899 0.3858 0.0000
vt 0.5985 0.3533 0.0000
vt 0.6004 0.3791 0.0000
vt 0.6031 0.3684 0.0000
vt 0.4378 0.4389 0.0000
vt 0.4381 0.4034 0.0000
vt 0.4090 0.4224 0.0000
vt 0.4091 0.4035 0.0000
vt 0.3868 0.4163 0.0000
vt 0.3870 0.4035 0.0000
vt 0.3696 0.4160 0.0000
vt 0.3696 0.4036 0.0000
vt 0.3696 0.3909 0.0000
vt 0.3547 0.4033 0.0000
vt 0.3545 0.3909 0.0000
vt 0.3392 0.3481 0.0000
vt 0.3552 0.3435 0.0000
vt 0.3387 0.3858 0.0000
vt 0.5588 0.3439 0.0000
vt 0.5384 0.3913 0.0000
vt 0.5391 0.3439 0.0000
vt 0.5160 0.3913 0.0000
vt 0.5167 0.3438 0.0000
vt 0.4949 0.3912 0.0000
vt 0.4959 0.3438 0.0000
vt 0.4665 0.3437 0.0000
vt 0.4660 0.3911 0.0000
vt 0.4382 0.3911 0.0000
vt 0.4388 0.3436 0.0000
vt 0.4091 0.3910 0.0000
vt 0.4094 0.3436 0.0000
vt 0.3872 0.3910 0.0000
vt 0.3883 0.3435 0.0000
vt 0.3700 0.3435 0.0000
vt 0.0483 0.0812 0.2906
vt 0.0644 0.0812 0.3025
vt 0.0644 0.0848 0.3025
vt 0.0483 0.0848 0.2906
vt 0.0429 0.0812 0.2686
vt 0.0429 0.0848 0.2686
vt 0.5378 0.0812 -0.2697
vt 0.6060 0.0812 -0.3011
vt 0.6060 0.0848 -0.3011
vt 0.5378 0.0848 -0.2697
vt 0.4841 0.0812 -0.2317
vt 0.4841 0.0848 -0.2317
vt 0.4537 0.0812 -0.1192
vt 0.4537 0.0848 -0.1192
vt 0.4296 0.0812 -0.0024
vt 0.4461 0.0812 0.0125
vt 0.4461 0.0848 0.0125
vt 0.4296 0.0848 -0.0024
vt 0.4147 0.0812 0.0957
vt 0.4284 0.0812 0.0944
vt 0.4284 0.0848 0.0944
vt 0.4147 0.0848 0.0957
vt 0.3652 0.0812 0.1637
vt 0.3738 0.0812 0.2434
vt 0.3738 0.0848 0.2434
vt 0.3652 0.0848 0.1637
vt 0.4096 0.0812 0.1972
vt 0.4096 0.0848 0.1972
vt 0.3812 0.0812 0.2898
vt 0.3812 0.0848 0.2898
vt 0.4041 0.0812 0.2694
vt 0.4041 0.0848 0.2694
vt 0.3950 0.0812 0.2962
vt 0.3950 0.0848 0.2962
vt 0.6733 0.0812 -0.2769
vt 0.6733 0.0848 -0.2769
vt 0.7415 0.0812 -0.2137
vt 0.7415 0.0848 -0.2137
vt 0.7655 0.0812 -0.0934
vt 0.7655 0.0848 -0.0934
vt 0.7720 0.0812 0.0149
vt 0.7876 0.0812 0.0006
vt 0.7876 0.0848 0.0006
vt 0.7720 0.0848 0.0149
vt 0.7897 0.0812 0.0973
vt 0.7897 0.0848 0.0973
vt 0.0200 0.0812 0.0973
vt 0.0338 0.0812 0.0958
vt 0.0338 0.0848 0.0958
vt 0.0200 0.0848 0.0973
vt 0.0737 0.0812 0.2463
vt 0.0836 0.0812 0.1607
vt 0.0836 0.0848 0.1607
vt 0.0737 0.0848 0.2463
vt 0.0385 0.0812 0.2003
vt 0.0385 0.0848 0.2003
vt 0.0906 0.0848 0.0736
vt 0.0906 0.0812 0.0736
vt 0.1021 0.0848 -0.0307
vt 0.1021 0.0812 -0.0307
vt 0.1210 0.0848 -0.1408
vt 0.1210 0.0812 -0.1408
vt 0.1650 0.0848 -0.2610
vt 0.1650 0.0812 -0.2610
vt 0.2291 0.0848 -0.3025
vt 0.2291 0.0812 -0.3025
vt 0.2936 0.0848 -0.2432
vt 0.2936 0.0812 -0.2432
vt 0.3239 0.0848 -0.1560
vt 0.3239 0.0812 -0.1560
vt 0.3452 0.0848 -0.0403
vt 0.3452 0.0812 -0.0403
vt 0.3577 0.0848 0.0709
vt 0.3577 0.0812 0.0709
# 178 texture coords

g Line002
s 1
f 1/1/1 2/2/2 3/3/2 
f 4/4/2 5/5/2 6/6/2 7/7/2 
f 5/5/2 4/4/2 8/8/2 9/9/2 
f 10/10/2 11/11/2 9/9/2 8/8/2 
f 12/12/2 13/13/2 11/11/2 10/10/2 
f 14/14/2 15/15/2 16/16/2 13/13/2 
f 17/17/2 18/18/1 19/19/2 15/15/2 
f 20/20/2 21/21/1 18/18/1 17/17/2 
f 20/20/2 22/22/2 21/21/1 
f 23/23/2 7/7/2 6/6/2 24/24/2 
f 25/25/2 23/23/2 24/24/2 26/26/2 
f 27/27/2 25/25/2 26/26/2 28/28/2 
f 29/29/2 30/30/2 27/27/2 28/28/2 
f 31/31/2 29/29/2 32/32/2 33/33/2 
f 33/33/2 34/34/2 35/35/1 36/36/2 
f 1/1/1 36/36/2 35/35/1 2/2/2 
f 19/19/2 37/37/2 16/16/2 15/15/2 
f 37/37/2 38/38/2 39/39/2 16/16/2 
f 38/38/2 40/40/2 41/41/2 39/39/2 
f 40/40/2 42/42/2 43/43/2 41/41/2 
f 43/43/2 42/42/2 44/44/2 45/45/2 
f 44/44/2 46/46/2 47/47/2 45/45/2 
f 46/46/2 48/48/2 49/49/2 47/47/2 
f 48/48/2 50/50/2 51/51/2 49/49/2 
f 50/50/2 52/52/2 32/32/2 51/51/2 
f 52/52/2 34/34/2 33/33/2 32/32/2 
f 16/16/2 39/39/2 11/11/2 13/13/2 
f 11/11/2 39/39/2 41/41/2 9/9/2 
f 9/9/2 41/41/2 43/43/2 5/5/2 
f 5/5/2 43/43/2 45/45/2 6/6/2 
f 6/6/2 45/45/2 47/47/2 24/24/2 
f 47/47/2 49/49/2 26/26/2 24/24/2 
f 26/26/2 49/49/2 51/51/2 28/28/2 
f 29/29/2 28/28/2 51/51/2 32/32/2 
f 53/53/3 54/54/3 55/55/3 
f 56/56/3 57/57/3 58/58/3 59/59/3 
f 60/60/3 58/58/3 57/57/3 61/61/3 
f 61/61/3 62/62/3 63/63/3 60/60/3 
f 62/62/3 64/64/3 65/65/3 63/63/3 
f 66/66/3 67/67/3 68/68/3 64/64/3 
f 69/69/3 70/70/3 71/71/3 67/67/3 
f 70/70/3 72/72/3 73/73/3 71/71/3 
f 72/72/3 74/74/3 73/73/3 
f 56/56/3 59/59/3 75/75/3 76/76/3 
f 76/76/3 75/75/3 77/77/3 78/78/3 
f 78/78/3 77/77/3 79/79/3 80/80/3 
f 79/79/3 81/81/3 82/82/3 80/80/3 
f 83/83/3 82/82/3 84/84/3 85/85/3 
f 86/86/3 87/87/3 85/85/3 88/88/3 
f 86/86/3 88/88/3 55/55/3 54/54/3 
f 66/66/3 89/89/3 69/69/3 67/67/3 
f 90/90/3 91/91/3 89/89/3 66/66/3 
f 92/92/3 93/93/3 91/91/3 90/90/3 
f 94/94/3 95/95/3 93/93/3 92/92/3 
f 96/96/3 95/95/3 94/94/3 97/97/3 
f 98/98/3 99/99/3 96/96/3 97/97/3 
f 100/100/3 101/101/3 99/99/3 98/98/3 
f 102/102/3 103/103/3 101/101/3 100/100/3 
f 83/83/3 104/104/3 103/103/3 102/102/3 
f 85/85/3 87/87/3 104/104/3 83/83/3 
f 62/62/3 90/90/3 66/66/3 64/64/3 
f 92/92/3 90/90/3 62/62/3 61/61/3 
f 94/94/3 92/92/3 61/61/3 57/57/3 
f 97/97/3 94/94/3 57/57/3 56/56/3 
f 98/98/3 97/97/3 56/56/3 76/76/3 
f 78/78/3 100/100/3 98/98/3 76/76/3 
f 102/102/3 100/100/3 78/78/3 80/80/3 
f 102/102/3 80/80/3 82/82/3 83/83/3 
s 2
f 3/105/4 2/106/5 54/107/5 53/108/4 
f 1/109/6 3/105/4 53/108/4 55/110/6 
f 4/111/7 7/112/8 59/113/8 58/114/7 
f 8/115/9 4/111/7 58/114/7 60/116/9 
f 10/117/10 8/115/9 60/116/9 63/118/10 
s 4
f 13/119/11 12/120/11 65/121/11 64/122/11 
s 2
f 12/120/12 10/117/10 63/118/10 65/121/12 
f 15/123/13 14/124/13 68/125/13 67/126/13 
s 8
f 14/124/14 13/119/14 64/122/14 68/125/14 
s 4
f 19/127/15 18/128/16 70/129/16 69/130/15 
f 17/131/17 15/123/18 67/126/18 71/132/17 
f 18/128/16 21/133/19 72/134/19 70/129/16 
f 20/135/20 17/131/17 71/132/17 73/136/20 
f 22/137/21 20/135/20 73/136/20 74/138/21 
f 21/133/19 22/137/21 74/138/21 72/134/19 
s 2
f 7/112/8 23/139/22 75/140/22 59/113/8 
f 23/139/22 25/141/23 77/142/23 75/140/22 
f 25/141/23 27/143/24 79/144/24 77/142/23 
s 4
f 30/145/25 29/146/25 82/147/25 81/148/25 
s 2
f 27/143/24 30/145/26 81/148/26 79/144/24 
f 29/146/27 31/149/27 84/150/27 82/147/27 
s 4
f 31/151/28 33/152/28 85/153/28 84/154/28 
s 2
f 35/155/29 34/156/30 87/157/30 86/158/29 
f 33/152/31 36/159/32 88/160/32 85/153/31 
f 36/159/32 1/109/6 55/110/6 88/160/32 
f 2/106/5 35/155/29 86/158/29 54/107/5 
s 8
f 104/161/33 87/157/33 34/156/33 52/162/33 
f 103/163/33 104/161/33 52/162/33 50/164/33 
f 101/165/33 103/163/33 50/164/33 48/166/33 
f 99/167/33 101/165/33 48/166/33 46/168/33 
f 96/169/33 99/167/33 46/168/33 44/170/33 
f 95/171/33 96/169/33 44/170/33 42/172/33 
f 93/173/33 95/171/33 42/172/33 40/174/33 
f 91/175/33 93/173/33 40/174/33 38/176/33 
f 89/177/33 91/175/33 38/176/33 37/178/33 
f 69/130/33 89/177/33 37/178/33 19/127/33 
# 100 polygons - 4 triangles

