# 3ds Max Wavefront OBJ Exporter v0.97b - (c)2007 guruware
# File Created: 10.04.2018 16:43:38

#
# object Cylinder001
#

v  0.0000 0.0000 -0.0000
v  0.3183 0.1838 0.0000
v  0.3675 0.0000 -0.0000
v  0.1838 0.3183 0.0000
v  -0.0000 0.3675 0.0000
v  -0.1838 0.3183 0.0000
v  -0.3183 0.1838 0.0000
v  -0.3675 0.0000 0.0000
v  -0.3183 -0.1838 -0.0000
v  -0.1838 -0.3183 -0.0000
v  -0.0000 -0.3675 -0.0000
v  0.1838 -0.3183 -0.0000
v  0.3183 -0.1838 -0.0000
v  0.6366 0.3675 0.0000
v  0.7351 0.0000 -0.0000
v  0.3675 0.6366 0.0000
v  -0.0000 0.7351 0.0000
v  -0.3675 0.6366 0.0000
v  -0.6366 0.3675 0.0000
v  -0.7351 0.0000 0.0000
v  -0.6366 -0.3675 -0.0000
v  -0.3675 -0.6366 -0.0000
v  -0.0000 -0.7351 -0.0000
v  0.3675 -0.6366 -0.0000
v  0.6366 -0.3675 -0.0000
v  0.6366 0.3675 0.1050
v  0.7351 -0.0000 0.1050
v  0.3675 0.6366 0.1050
v  -0.0000 0.7351 0.1050
v  -0.3675 0.6366 0.1050
v  -0.6366 0.3675 0.1050
v  -0.7351 0.0000 0.1050
v  -0.6366 -0.3675 0.1050
v  -0.3675 -0.6366 0.1050
v  -0.0000 -0.7351 0.1050
v  0.3675 -0.6366 0.1050
v  0.6366 -0.3675 0.1050
v  0.3183 0.1838 0.1050
v  0.3675 -0.0000 0.1050
v  0.1838 0.3183 0.1050
v  -0.0000 0.3675 0.1050
v  -0.1838 0.3183 0.1050
v  -0.3183 0.1838 0.1050
v  -0.3675 0.0000 0.1050
v  -0.3183 -0.1838 0.1050
v  -0.1838 -0.3183 0.1050
v  -0.0000 -0.3675 0.1050
v  0.1838 -0.3183 0.1050
v  0.3183 -0.1838 0.1050
v  0.0000 -0.0000 0.1050
# 50 vertices

vn 0.0000 0.0000 -1.0000
vn 1.0000 -0.0000 -0.0000
vn 0.8660 0.5000 0.0000
vn 0.5000 0.8660 0.0000
vn -0.0000 1.0000 0.0000
vn -0.5000 0.8660 0.0000
vn -0.8660 0.5000 0.0000
vn -1.0000 0.0000 0.0000
vn -0.8660 -0.5000 -0.0000
vn -0.5000 -0.8660 -0.0000
vn -0.0000 -1.0000 -0.0000
vn 0.5000 -0.8660 -0.0000
vn 0.8660 -0.5000 -0.0000
vn 0.0000 -0.0000 1.0000
# 14 vertex normals

vt 0.7428 0.6073 0.0000
vt 0.6986 0.6329 0.0000
vt 0.6918 0.6073 0.0000
vt 0.7173 0.6516 0.0000
vt 0.7428 0.6584 0.0000
vt 0.7684 0.6516 0.0000
vt 0.7871 0.6329 0.0000
vt 0.7939 0.6073 0.0000
vt 0.7871 0.5818 0.0000
vt 0.7684 0.5631 0.0000
vt 0.7428 0.5563 0.0000
vt 0.7173 0.5631 0.0000
vt 0.6986 0.5818 0.0000
vt 0.6544 0.6584 0.0000
vt 0.6407 0.6073 0.0000
vt 0.6918 0.6958 0.0000
vt 0.7428 0.7095 0.0000
vt 0.7939 0.6958 0.0000
vt 0.8313 0.6584 0.0000
vt 0.8450 0.6073 0.0000
vt 0.8313 0.5563 0.0000
vt 0.7939 0.5189 0.0000
vt 0.7428 0.5052 0.0000
vt 0.6918 0.5189 0.0000
vt 0.6544 0.5563 0.0000
vt 0.0732 0.1219 0.0000
vt 0.0200 0.1219 0.0000
vt 0.0200 0.1074 0.0000
vt 0.0732 0.1074 0.0000
vt 0.6582 0.1219 0.0000
vt 0.6050 0.1219 0.0000
vt 0.6050 0.1074 0.0000
vt 0.6582 0.1074 0.0000
vt 0.5518 0.1219 0.0000
vt 0.5518 0.1074 0.0000
vt 0.4986 0.1219 0.0000
vt 0.4986 0.1074 0.0000
vt 0.4455 0.1219 0.0000
vt 0.4455 0.1074 0.0000
vt 0.3923 0.1219 0.0000
vt 0.3923 0.1074 0.0000
vt 0.3391 0.1219 0.0000
vt 0.3391 0.1074 0.0000
vt 0.2859 0.1219 0.0000
vt 0.2859 0.1074 0.0000
vt 0.2327 0.1219 0.0000
vt 0.2327 0.1074 0.0000
vt 0.1795 0.1219 0.0000
vt 0.1795 0.1074 0.0000
vt 0.1264 0.1219 0.0000
vt 0.1264 0.1074 0.0000
vt 0.9543 0.4150 0.0000
vt 0.9406 0.4661 0.0000
vt 0.8964 0.4406 0.0000
vt 0.9032 0.4150 0.0000
vt 0.9032 0.5035 0.0000
vt 0.8777 0.4592 0.0000
vt 0.8521 0.5172 0.0000
vt 0.8521 0.4661 0.0000
vt 0.8010 0.5035 0.0000
vt 0.8266 0.4592 0.0000
vt 0.7637 0.4661 0.0000
vt 0.8079 0.4406 0.0000
vt 0.7500 0.4150 0.0000
vt 0.8010 0.4150 0.0000
vt 0.7637 0.3639 0.0000
vt 0.8079 0.3895 0.0000
vt 0.8010 0.3265 0.0000
vt 0.8266 0.3708 0.0000
vt 0.8521 0.3129 0.0000
vt 0.8521 0.3639 0.0000
vt 0.9032 0.3265 0.0000
vt 0.8777 0.3708 0.0000
vt 0.9406 0.3639 0.0000
vt 0.8964 0.3895 0.0000
vt 0.8521 0.4150 0.0000
# 76 texture coords

g Cylinder001
s 1
f 1/1/1 2/2/1 3/3/1 
f 1/1/1 4/4/1 2/2/1 
f 1/1/1 5/5/1 4/4/1 
f 1/1/1 6/6/1 5/5/1 
f 1/1/1 7/7/1 6/6/1 
f 1/1/1 8/8/1 7/7/1 
f 1/1/1 9/9/1 8/8/1 
f 1/1/1 10/10/1 9/9/1 
f 1/1/1 11/11/1 10/10/1 
f 1/1/1 12/12/1 11/11/1 
f 1/1/1 13/13/1 12/12/1 
f 1/1/1 3/3/1 13/13/1 
f 3/3/1 2/2/1 14/14/1 15/15/1 
f 2/2/1 4/4/1 16/16/1 14/14/1 
f 4/4/1 5/5/1 17/17/1 16/16/1 
f 5/5/1 6/6/1 18/18/1 17/17/1 
f 6/6/1 7/7/1 19/19/1 18/18/1 
f 7/7/1 8/8/1 20/20/1 19/19/1 
f 8/8/1 9/9/1 21/21/1 20/20/1 
f 9/9/1 10/10/1 22/22/1 21/21/1 
f 10/10/1 11/11/1 23/23/1 22/22/1 
f 11/11/1 12/12/1 24/24/1 23/23/1 
f 12/12/1 13/13/1 25/25/1 24/24/1 
f 13/13/1 3/3/1 15/15/1 25/25/1 
s 8
f 15/26/2 14/27/3 26/28/3 27/29/2 
f 14/30/3 16/31/4 28/32/4 26/33/3 
f 16/31/4 17/34/5 29/35/5 28/32/4 
f 17/34/5 18/36/6 30/37/6 29/35/5 
f 18/36/6 19/38/7 31/39/7 30/37/6 
f 19/38/7 20/40/8 32/41/8 31/39/7 
f 20/40/8 21/42/9 33/43/9 32/41/8 
f 21/42/9 22/44/10 34/45/10 33/43/9 
f 22/44/10 23/46/11 35/47/11 34/45/10 
f 23/46/11 24/48/12 36/49/12 35/47/11 
f 24/48/12 25/50/13 37/51/13 36/49/12 
f 25/50/13 15/26/2 27/29/2 37/51/13 
s 1
f 27/52/14 26/53/14 38/54/14 39/55/14 
f 26/53/14 28/56/14 40/57/14 38/54/14 
f 28/56/14 29/58/14 41/59/14 40/57/14 
f 29/58/14 30/60/14 42/61/14 41/59/14 
f 30/60/14 31/62/14 43/63/14 42/61/14 
f 31/62/14 32/64/14 44/65/14 43/63/14 
f 32/64/14 33/66/14 45/67/14 44/65/14 
f 33/66/14 34/68/14 46/69/14 45/67/14 
f 34/68/14 35/70/14 47/71/14 46/69/14 
f 35/70/14 36/72/14 48/73/14 47/71/14 
f 36/72/14 37/74/14 49/75/14 48/73/14 
f 37/74/14 27/52/14 39/55/14 49/75/14 
f 50/76/14 39/55/14 38/54/14 
f 50/76/14 38/54/14 40/57/14 
f 50/76/14 40/57/14 41/59/14 
f 50/76/14 41/59/14 42/61/14 
f 50/76/14 42/61/14 43/63/14 
f 50/76/14 43/63/14 44/65/14 
f 50/76/14 44/65/14 45/67/14 
f 50/76/14 45/67/14 46/69/14 
f 50/76/14 46/69/14 47/71/14 
f 50/76/14 47/71/14 48/73/14 
f 50/76/14 48/73/14 49/75/14 
f 50/76/14 49/75/14 39/55/14 
# 36 polygons - 24 triangles

